# Blender v2.76 (sub 0) OBJ File: ''
# www.blender.org
o Zylinder_1
v 0.184144 0.115598 -0.796066
v 0.639522 0.115598 -0.156060
v -0.019507 0.115598 -0.156060
v 0.184144 0.115598 -0.796066
v 0.099354 5.494128 -0.460306
v 0.280345 5.494128 -0.156059
v 0.639522 0.115598 -0.156060
v 0.099354 5.494128 -0.460306
v 0.018412 5.494128 -0.156059
v 0.280345 5.494128 -0.156059
v -0.552673 0.115598 -0.551606
v -0.552673 0.115598 -0.551606
v -0.193497 5.494128 -0.344094
v -0.193497 5.494128 -0.344094
v -0.552673 0.115598 0.239485
v -0.552673 0.115598 0.239485
v -0.193497 5.494128 0.031975
v -0.193497 5.494128 0.031975
v 0.184144 0.115598 0.483946
v 0.184144 0.115598 0.483946
v 0.099354 5.494128 0.148187
v 0.099354 5.494128 0.148187
v 2.623598 6.056883 -0.632350
v 1.263749 9.319609 -0.018829
v 1.498323 7.215949 2.189034
v 0.978998 6.292796 -2.875616
v -2.007246 8.523152 1.055118
v -2.560117 5.804245 -1.244951
v -1.344564 4.562877 1.190638
v 0.763656 3.893845 0.749002
v -0.634554 8.642859 -2.054991
vt 0.479601 0.184185
vt 0.501361 0.214768
vt 0.469869 0.214768
vt 0.829871 0.145401
vt 0.837606 0.143080
vt 0.582034 0.131055
vt 0.455591 0.197815
vt 0.459459 0.212354
vt 0.446943 0.212354
vt 0.444392 0.195867
vt 0.860709 0.143674
vt 0.866791 0.144875
vt 0.577295 0.119676
vt 0.469585 0.203368
vt 0.444392 0.233669
vt 0.585443 0.123834
vt 0.860495 0.138957
vt 0.469585 0.221339
vt 0.479601 0.245350
vt 0.584472 0.131787
vt 0.873352 0.146765
vt 0.867610 0.146937
vt 0.455591 0.226892
vt 0.569047 0.128112
vt 0.883472 0.150241
vt 0.214120 0.476252
vt 0.345193 0.368140
vt 0.453306 0.499213
vt 0.594644 0.129459
vt 0.585135 0.121717
vt 0.592752 0.130696
vn 0.000000 -1.000000 -0.000000
vn 0.858000 0.057300 -0.510400
vn 0.000000 1.000000 0.000000
vn -0.368300 0.052100 -0.928200
vn -0.997800 0.066600 0.000000
vn -0.368300 0.052100 0.928200
vn 0.858000 0.057300 0.510400
vn 0.913600 0.338400 0.225400
vn 0.755300 0.410800 -0.510600
vn 0.048600 0.725700 0.686300
vn -0.912600 -0.139600 0.384300
vn 0.794400 -0.380800 0.473300
vn -0.819700 0.457800 -0.344200
vn -0.421400 0.027200 -0.906500
vn -0.343600 -0.894900 -0.284600
vn 0.061200 -0.408300 0.910800
vn -0.259900 0.962500 -0.077600
vn 0.497800 0.570100 -0.653600
vn -0.141000 -0.821700 -0.552200
vn -0.314500 -0.020100 0.949000
vn 0.512600 -0.729700 -0.452500
vn 0.813800 0.049000 -0.579100
vn -0.314400 0.057600 -0.947600
vn -0.314400 0.057600 0.947600
vn 0.813800 0.049000 0.579100
s off
f 1/1/1 2/2/1 3/3/1
f 5/4/2 6/5/2 7/6/2
f 8/7/3 9/8/3 10/9/3
f 11/10/1 1/1/1 3/3/1
f 13/11/4 5/12/4 4/13/4
f 14/14/3 9/8/3 8/7/3
f 15/15/1 11/10/1 3/3/1
f 16/16/5 17/17/5 13/11/5
f 18/18/3 9/8/3 14/14/3
f 19/19/1 15/15/1 3/3/1
f 20/20/6 21/21/6 17/22/6
f 22/23/3 9/8/3 18/18/3
f 2/2/1 19/19/1 3/3/1
f 7/24/7 6/25/7 21/21/7
f 10/9/3 9/8/3 22/23/3
f 23/26/8 24/27/8 25/28/8
f 26/26/9 24/27/9 23/28/9
f 25/26/10 24/27/10 27/28/10
f 27/26/11 28/27/11 29/28/11
f 23/26/12 25/27/12 30/28/12
f 27/26/13 31/27/13 28/28/13
f 28/26/14 31/27/14 26/28/14
f 29/26/15 28/27/15 30/28/15
f 30/26/16 25/27/16 29/28/16
f 24/26/17 31/27/17 27/28/17
f 26/26/18 31/27/18 24/28/18
f 28/26/19 26/27/19 30/28/19
f 25/26/20 27/27/20 29/28/20
f 26/26/21 23/27/21 30/28/21
f 4/29/22 5/4/22 7/6/22
f 12/30/23 13/11/23 4/13/23
f 12/30/5 16/16/5 13/11/5
f 16/31/24 20/20/24 17/22/24
f 20/20/25 7/24/25 21/21/25
