# Blender v2.78 (sub 0) OBJ File: ''
# www.blender.org
mtllib Test.mtl
o Mesh1_Model
v 41.130001 0.000013 -81.540001
v 0.000000 0.000000 0.000000
v 0.000000 0.000013 -81.540001
v 41.130001 0.000005 -33.169998
v 41.130001 15.250006 -33.169994
v 41.130001 30.800013 -81.539993
v 41.130001 30.799999 0.000005
v 41.130001 15.250000 0.000002
v 0.000000 30.799999 0.000005
v 58.430000 15.250000 0.000002
v 58.430000 0.000000 0.000000
v 58.430000 0.000005 -33.169998
v 58.430000 15.250006 -33.169994
v 0.000000 30.800013 -81.539993
vt 0.0000 25.2625
vt 13.4941 12.5082
vt 13.4941 25.2625
vt 0.0000 0.0000
vt 19.1699 12.5082
vt 19.1699 0.0000
vt -1619.2900 3210.2400
vt 0.0000 3210.2400
vt -1619.2900 1305.9100
vt 3210.2400 0.0000
vt 1305.9100 600.3940
vt 1305.9100 0.0000
vt 3210.2400 1212.6000
vt 0.0000 1212.6000
vt 0.0000 600.3940
vt -2300.3899 0.0000
vt -2300.3899 1305.9100
vt -1619.2900 600.3940
vt -2300.3899 0.0000
vt -1619.2900 0.0000
vt -2300.3899 600.3940
vt 1619.2900 1305.9100
vt 2300.3899 0.0000
vt 2300.3899 1305.9100
vt 1619.2900 0.0000
vt 0.0000 600.3940
vt 1305.9100 0.0000
vt 1305.9100 600.3940
vt 0.0000 0.0000
vt -3210.2400 1212.6000
vt 0.0000 1212.6000
vt -3210.2400 0.0000
vt 0.0000 1212.6000
vt -1619.2900 0.0000
vt 0.0000 0.0000
vt -1619.2900 1212.6000
vt 0.0000 3210.2400
vt 1619.2900 0.0000
vt 1619.2900 3210.2400
vt 0.0000 0.0000
vn 0.0000 -0.0000 1.0000
vn 0.0000 -1.0000 -0.0000
vn 1.0000 -0.0000 0.0000
vn 0.0000 0.0000 -1.0000
vn 0.0000 1.0000 0.0000
vn -1.0000 0.0000 0.0000
usemtl Wood_Floor_Dark
s 1
f 9/1/1 8/2/1 7/3/1
f 2/4/1 8/2/1 9/1/1
f 2/4/1 10/5/1 8/2/1
f 10/5/1 2/4/1 11/6/1
usemtl FrontColor
f 1/7/2 2/4/2 3/8/2
f 2/4/2 1/7/2 4/9/2
f 1/10/3 5/11/3 4/12/3
f 6/13/3 5/11/3 1/10/3
f 7/14/3 5/11/3 6/13/3
f 5/11/3 7/14/3 8/15/3
f 2/4/2 4/9/2 11/16/2
f 11/16/2 4/9/2 12/17/2
f 5/18/4 12/19/4 4/20/4
f 12/19/4 5/18/4 13/21/4
f 5/22/5 10/23/5 13/24/5
f 10/23/5 5/22/5 8/25/5
f 10/26/3 12/27/3 13/28/3
f 12/27/3 10/26/3 11/29/3
f 14/30/6 2/4/6 9/31/6
f 2/4/6 14/30/6 3/32/6
f 14/33/4 1/34/4 3/35/4
f 1/34/4 14/33/4 6/36/4
f 14/37/5 7/38/5 6/39/5
f 7/38/5 14/37/5 9/40/5
