# Blender v2.76 (sub 0) OBJ File: ''
# www.blender.org
o W_rfel
v 0.500000 -0.500000 0.500000
v 0.500000 0.500000 0.500000
v -0.500000 0.500000 0.500000
v -0.500000 -0.500000 0.500000
v 0.500000 -0.500000 -0.500000
v 0.500000 0.500000 -0.500000
v -0.500000 -0.500000 -0.500000
v -0.500000 0.500000 -0.500000
vt 0.250000 1.000000
vt 0.187508 1.000000
vt 0.187506 0.937505
vt 1.000002 0.875004
vt 0.937503 0.874997
vt 0.937535 0.812517
vt 0.125002 0.999999
vt 0.125015 0.937511
vt 0.250000 0.937501
vt 0.999983 0.812525
vn 0.000000 -0.000000 1.000000
vn 1.000000 -0.000000 0.000000
vn 0.000000 0.000000 -1.000000
vn -1.000000 -0.000000 0.000000
vn 0.000000 1.000000 0.000000
vn 0.000000 -1.000000 -0.000000
s off
f 2/1/1 3/2/1 4/3/1
f 6/1/2 2/2/2 1/3/2
f 8/1/3 6/2/3 5/3/3
f 3/1/4 8/2/4 7/3/4
f 6/4/5 8/5/5 3/6/5
f 1/2/6 4/7/6 7/8/6
f 1/9/1 2/1/1 4/3/1
f 5/9/2 6/1/2 1/3/2
f 7/9/3 8/1/3 5/3/3
f 4/9/4 3/1/4 7/3/4
f 2/10/5 6/4/5 3/6/5
f 5/3/6 1/2/6 7/8/6
